<?xml version="1.0" encoding="UTF-8" standalone="no"?>
<svg
   xmlns:dc="http://purl.org/dc/elements/1.1/"
   xmlns:cc="http://creativecommons.org/ns#"
   xmlns:rdf="http://www.w3.org/1999/02/22-rdf-syntax-ns#"
   xmlns:svg="http://www.w3.org/2000/svg"
   xmlns="http://www.w3.org/2000/svg"
   xmlns:sodipodi="http://sodipodi.sourceforge.net/DTD/sodipodi-0.dtd"
   xmlns:inkscape="http://www.inkscape.org/namespaces/inkscape"
   width="280.00037"
   height="215.06639"
   viewBox="0 0 280.00037 215.0664"
   id="svg2"
   version="1.1"
   inkscape:version="0.91 r13725"
   sodipodi:docname="Last_Week_Tonight.svg">
  <sodipodi:namedview
     pagecolor="#ffffff"
     bordercolor="#666666"
     borderopacity="1"
     objecttolerance="10"
     gridtolerance="10"
     guidetolerance="10"
     inkscape:pageopacity="0"
     inkscape:pageshadow="2"
     inkscape:window-width="1366"
     inkscape:window-height="705"
     id="namedview48"
     showgrid="false"
     fit-margin-top="22.227"
     fit-margin-left="22.227"
     fit-margin-bottom="22.227"
     fit-margin-right="22.227"
     inkscape:zoom="2.38396"
     inkscape:cx="140.00019"
     inkscape:cy="107.5332"
     inkscape:window-x="-8"
     inkscape:window-y="-8"
     inkscape:window-maximized="1"
     inkscape:current-layer="svg2" />
  <defs
     id="defs4" />
  <metadata
     id="metadata7">
    <rdf:RDF>
      <cc:Work
         rdf:about="">
        <dc:format>image/svg+xml</dc:format>
        <dc:type
           rdf:resource="http://purl.org/dc/dcmitype/StillImage" />
        <dc:title></dc:title>
      </cc:Work>
    </rdf:RDF>
  </metadata>
  <g
     id="layer1"
     transform="translate(-52.221329,-696.34742)">
    <g
       id="g4174"
       transform="matrix(0.46203427,0,0,0.45865942,50.320205,456.26707)">
      <g
         id="text3412"
         style="font-style:normal;font-variant:normal;font-weight:normal;font-stretch:normal;font-size:117.43154907px;line-height:125%;font-family:'Bryant Pro';-inkscape-font-specification:'Bryant Pro';letter-spacing:0px;word-spacing:0px;fill:#000000;fill-opacity:1;stroke:none;stroke-width:1px;stroke-linecap:butt;stroke-linejoin:miter;stroke-opacity:1"
         transform="scale(0.98666903,1.0135111)">
        <path
           id="path4389"
           style="font-style:normal;font-variant:normal;font-weight:500;font-stretch:normal;font-size:117.43154907px;font-family:'Bryant Pro';-inkscape-font-specification:'Bryant Pro Medium';fill:#000000"
           d="m 66.775599,643.89465 42.979951,0 c 2.81835,0 5.28442,-2.34863 5.28442,-5.40185 0,-2.93579 -2.46607,-5.16699 -5.28442,-5.16699 l -37.460668,0 0,-62.82587 c 0,-3.40552 -2.231199,-5.75415 -5.519283,-5.75415 -3.522946,0 -5.754146,2.58349 -5.754146,5.75415 l 0,67.64057 c 0,3.17065 2.348631,5.75414 5.754146,5.75414 z"
           inkscape:connector-curvature="0" />
        <path
           id="path4391"
           style="font-style:normal;font-variant:normal;font-weight:500;font-stretch:normal;font-size:117.43154907px;font-family:'Bryant Pro';-inkscape-font-specification:'Bryant Pro Medium';fill:#000000"
           d="m 166.22727,568.03387 c -0.93945,-2.2312 -2.58349,-3.28808 -5.04955,-3.28808 -2.46607,0 -4.11011,1.05688 -5.04956,3.28808 l -31.00193,69.16719 c -0.35229,0.82202 -0.58716,1.52661 -0.58716,2.34863 0,2.70092 1.76148,5.28442 5.28442,5.28442 2.70093,0 4.22754,-1.40918 5.04956,-3.28809 l 7.86791,-17.145 36.87351,0 7.86791,17.145 c 0.82202,1.87891 2.34864,3.28809 5.04956,3.28809 3.52295,0 5.28442,-2.5835 5.28442,-5.28442 0,-0.82202 -0.23486,-1.52661 -0.58716,-2.34863 l -31.00193,-69.16719 z m 9.2771,46.38546 -28.6533,0 14.32665,-33.23312 14.32665,33.23312 z"
           inkscape:connector-curvature="0" />
        <path
           id="path4393"
           style="font-style:normal;font-variant:normal;font-weight:500;font-stretch:normal;font-size:117.43154907px;font-family:'Bryant Pro';-inkscape-font-specification:'Bryant Pro Medium';fill:#000000"
           d="m 269.71565,623.10927 c 0,-13.3872 -10.45141,-18.43675 -29.24045,-24.30833 -13.50463,-4.22754 -19.25878,-6.6936 -19.25878,-13.62206 0,-7.63305 7.39819,-10.92114 18.90648,-10.92114 7.75048,0 14.32665,2.46607 20.0808,5.75415 0.58715,0.3523 1.40918,0.58716 2.2312,0.58716 3.28808,0 4.81469,-2.34863 4.81469,-5.04956 0,-3.64038 -5.51928,-6.45873 -9.51196,-7.98534 -5.63671,-2.11377 -11.62572,-3.28809 -17.73216,-3.28809 -17.61473,0 -30.06248,7.0459 -30.06248,21.13768 0,11.03857 6.57617,17.4973 27.47899,23.72117 14.09178,4.22754 21.02024,6.6936 21.02024,14.56152 0,6.6936 -6.10644,11.74315 -18.55418,11.74315 -9.62939,0 -15.6184,-3.17065 -22.07713,-7.28075 -1.40918,-0.82203 -2.5835,-1.40918 -3.99267,-1.40918 -2.70093,0 -4.8147,1.64404 -4.8147,4.57983 0,1.99633 1.29175,3.87524 3.05322,5.28442 6.81103,5.28442 17.37987,8.68993 27.71385,8.68993 19.61107,0 29.94504,-9.62939 29.94504,-22.19456 z"
           inkscape:connector-curvature="0" />
        <path
           id="path4395"
           style="font-style:normal;font-variant:normal;font-weight:500;font-stretch:normal;font-size:117.43154907px;font-family:'Bryant Pro';-inkscape-font-specification:'Bryant Pro Medium';fill:#000000"
           d="m 344.39111,571.08709 c 0,-3.05322 -2.34863,-5.40185 -5.40185,-5.40185 l -55.42769,0 c -3.05322,0 -5.40185,2.34863 -5.40185,5.40185 0,2.81836 2.46606,5.16699 5.40185,5.16699 l 22.19456,0 0,62.82588 c 0,3.17065 2.34863,5.75415 5.75415,5.75415 3.28808,0 5.51928,-2.5835 5.51928,-5.75415 l 0,-62.82588 21.9597,0 c 2.93579,0 5.40185,-2.34863 5.40185,-5.16699 z"
           inkscape:connector-curvature="0" />
      </g>
      <g
         id="text4258"
         style="font-style:normal;font-weight:normal;font-size:40px;line-height:125%;font-family:sans-serif;letter-spacing:0px;word-spacing:0px;fill:#000000;fill-opacity:1;stroke:none;stroke-width:1px;stroke-linecap:butt;stroke-linejoin:miter;stroke-opacity:1">
        <path
           id="path4401"
           style="font-style:normal;font-variant:normal;font-weight:500;font-stretch:normal;font-size:117.43154907px;font-family:'Bryant Pro';-inkscape-font-specification:'Bryant Pro Medium';fill:#000000"
           d="m 221.87696,758.29157 c 0,-3.17065 -2.46606,-5.16699 -5.40185,-5.16699 l -39.57443,0 0,-24.54319 21.37254,0 c 2.81836,0 5.16699,-2.11377 5.16699,-5.16699 0,-2.93579 -2.34863,-5.16699 -5.16699,-5.16699 l -21.37254,0 0,-22.66429 37.81296,0 c 2.93579,0 5.40185,-2.2312 5.40185,-5.16699 0,-2.93579 -2.46606,-5.16698 -5.40185,-5.16698 l -43.33224,0 c -3.17066,0 -5.75415,2.46606 -5.75415,5.63671 l 0,66.93598 c 0,3.17065 2.34863,5.63672 5.75415,5.63672 l 45.09371,0 c 2.93579,0 5.40185,-2.2312 5.40185,-5.16699 z"
           inkscape:connector-curvature="0" />
        <path
           id="path4403"
           style="font-style:normal;font-variant:normal;font-weight:500;font-stretch:normal;font-size:117.43154907px;font-family:'Bryant Pro';-inkscape-font-specification:'Bryant Pro Medium';fill:#000000"
           d="m 292.9781,758.29157 c 0,-3.17065 -2.46607,-5.16699 -5.40185,-5.16699 l -39.57444,0 0,-24.54319 21.37255,0 c 2.81835,0 5.16698,-2.11377 5.16698,-5.16699 0,-2.93579 -2.34863,-5.16699 -5.16698,-5.16699 l -21.37255,0 0,-22.66429 37.81296,0 c 2.93579,0 5.40185,-2.2312 5.40185,-5.16699 0,-2.93579 -2.46606,-5.16698 -5.40185,-5.16698 l -43.33224,0 c -3.17065,0 -5.75414,2.46606 -5.75414,5.63671 l 0,66.93598 c 0,3.17065 2.34863,5.63672 5.75414,5.63672 l 45.09372,0 c 2.93578,0 5.40185,-2.2312 5.40185,-5.16699 z"
           inkscape:connector-curvature="0" />
        <path
           id="path4405"
           style="font-style:normal;font-variant:normal;font-weight:500;font-stretch:normal;font-size:117.43154907px;font-family:'Bryant Pro';-inkscape-font-specification:'Bryant Pro Medium';fill:#000000"
           d="m 319.10295,758.64386 0,-19.3762 16.44042,-16.08812 24.30833,38.63498 c 1.05688,1.76147 2.46606,2.58349 4.93212,2.58349 2.93579,0 5.16699,-2.70093 5.16699,-5.16699 0,-1.05688 -0.35229,-2.2312 -0.93945,-3.17065 l -25.48265,-40.39645 22.54686,-22.07713 c 1.17431,-1.05689 1.76147,-2.46607 1.76147,-4.11011 0,-2.93579 -2.70092,-5.16699 -5.51928,-5.16699 -1.29175,0 -2.46606,0.3523 -3.75781,1.64404 l -39.457,38.51755 0,-34.40744 c 0,-3.40552 -2.2312,-5.75415 -5.51928,-5.75415 -3.52295,0 -5.75415,2.5835 -5.75415,5.75415 l 0,68.58002 c 0,3.17066 2.34863,5.75415 5.75415,5.75415 3.28808,0 5.51928,-2.58349 5.51928,-5.75415 z"
           inkscape:connector-curvature="0" />
      </g>
      <g
         id="text4262"
         style="font-style:normal;font-weight:normal;font-size:37.96304703px;line-height:125%;font-family:sans-serif;letter-spacing:0px;word-spacing:0px;fill:#000000;fill-opacity:1;stroke:none;stroke-width:1px;stroke-linecap:butt;stroke-linejoin:miter;stroke-opacity:1"
         transform="scale(0.94907614,1.0536562)">
        <path
           id="path4398"
           style="font-style:normal;font-variant:normal;font-weight:500;font-stretch:normal;font-size:111.45148468px;font-family:'Bryant Pro';-inkscape-font-specification:'Bryant Pro Medium';fill:#000000"
           d="m 114.52395,653.39633 c -0.78016,-2.11758 -2.22903,-3.455 -4.79241,-3.455 -2.56339,0 -4.01226,1.33742 -4.79242,3.455 L 86.883984,707.00449 68.60594,653.50778 c -0.78016,-2.45193 -2.340481,-3.56645 -4.792414,-3.56645 -2.897738,0 -4.792414,1.89468 -4.792414,4.79241 0,0.44581 0.111452,1.22597 0.334355,1.89468 l 22.624651,65.53347 c 0.668709,2.00613 2.006127,3.78935 5.015317,3.78935 2.340481,0 4.012254,-1.22596 4.680962,-3.23209 l 18.055143,-53.60816 18.05514,53.60816 c 0.66871,2.00613 2.34048,3.23209 4.68096,3.23209 3.00919,0 4.34661,-1.78322 5.01532,-3.78935 l 22.62465,-65.53347 c 0.2229,-0.66871 0.33435,-1.44887 0.33435,-1.89468 0,-2.89773 -1.89467,-4.79241 -4.79241,-4.79241 -2.45193,0 -4.01225,1.11452 -4.79241,3.56645 l -18.27805,53.49671 -18.05514,-53.60816 z"
           inkscape:connector-curvature="0" />
      </g>
      <g
         id="text4266"
         style="font-style:normal;font-weight:normal;font-size:40px;line-height:125%;font-family:sans-serif;letter-spacing:0px;word-spacing:0px;fill:#000000;fill-opacity:1;stroke:none;stroke-width:1px;stroke-linecap:butt;stroke-linejoin:miter;stroke-opacity:1">
        <path
           id="path4408"
           style="font-style:normal;font-variant:normal;font-weight:500;font-stretch:normal;font-size:117.43154907px;font-family:'Bryant Pro';-inkscape-font-specification:'Bryant Pro Medium';fill:#000000"
           d="m 118.4529,803.12603 c 0,-3.05322 -2.34864,-5.40185 -5.40186,-5.40185 l -55.427687,0 c -3.05322,0 -5.401851,2.34863 -5.401851,5.40185 0,2.81836 2.466062,5.16699 5.401851,5.16699 l 22.194563,0 0,62.82588 c 0,3.17065 2.348631,5.75415 5.754146,5.75415 3.288083,0 5.519283,-2.5835 5.519283,-5.75415 l 0,-62.82588 21.959695,0 c 2.93579,0 5.40186,-2.34863 5.40186,-5.16699 z"
           inkscape:connector-curvature="0" />
        <path
           id="path4410"
           style="font-style:normal;font-variant:normal;font-weight:500;font-stretch:normal;font-size:117.43154907px;font-family:'Bryant Pro';-inkscape-font-specification:'Bryant Pro Medium';fill:#000000"
           d="m 201.64214,836.82889 c 0,-22.07713 -15.85326,-40.51389 -39.69187,-40.51389 -23.8386,0 -39.69186,18.43676 -39.69186,40.51389 0,22.07713 15.85326,40.51388 39.69186,40.51388 23.83861,0 39.69187,-18.43675 39.69187,-40.51388 z m -11.27343,0 c 0,16.08812 -10.21655,30.29734 -28.41844,30.29734 -18.20189,0 -28.41843,-14.20922 -28.41843,-30.29734 0,-16.08812 10.21654,-30.29734 28.41843,-30.29734 18.20189,0 28.41844,14.20922 28.41844,30.29734 z"
           inkscape:connector-curvature="0" />
      </g>
      <g
         id="text4291"
         style="font-style:normal;font-weight:normal;font-size:40px;line-height:125%;font-family:sans-serif;letter-spacing:0px;word-spacing:0px;fill:#000000;fill-opacity:1;stroke:none;stroke-width:1px;stroke-linecap:butt;stroke-linejoin:miter;stroke-opacity:1">
        <path
           id="path4416"
           style="font-style:normal;font-variant:normal;font-weight:500;font-stretch:normal;font-size:117.43154907px;font-family:'Bryant Pro';-inkscape-font-specification:'Bryant Pro Medium';fill:#000000"
           d="m 313.85798,870.40461 0,-68.58003 c 0,-3.40551 -2.2312,-5.75414 -5.51928,-5.75414 -3.52295,0 -5.75414,2.58349 -5.75414,5.75414 l 0,68.58003 c 0,3.17065 2.34863,5.75414 5.75414,5.75414 3.28808,0 5.51928,-2.58349 5.51928,-5.75414 z"
           inkscape:connector-curvature="0" />
        <path
           id="path4418"
           style="font-style:normal;font-variant:normal;font-weight:500;font-stretch:normal;font-size:117.43154907px;font-family:'Bryant Pro';-inkscape-font-specification:'Bryant Pro Medium';fill:#000000"
           d="m 403.58853,860.42292 0,-19.49363 c 0,-3.64038 -2.46606,-5.75415 -5.63671,-5.75415 l -24.07347,0 c -2.81836,0 -5.16699,2.11377 -5.16699,5.04956 0,2.93579 2.34863,5.16699 5.16699,5.16699 l 18.67162,0 0,14.44408 c -5.04956,4.4624 -12.91747,7.04589 -21.72484,7.04589 -18.55419,0 -28.41844,-14.09179 -28.41844,-30.76707 0,-16.67528 11.156,-30.06247 28.18358,-30.06247 7.63305,0 13.15233,2.34863 19.3762,7.04589 1.29175,0.93945 2.46606,1.40918 3.75781,1.40918 3.17065,0 5.16699,-2.34863 5.16699,-5.16699 0,-1.52661 -0.70459,-2.70093 -1.76147,-3.75781 -6.6936,-7.04589 -16.32299,-9.98168 -26.53953,-9.98168 -22.78172,0 -39.57444,16.79271 -39.57444,40.51388 0,23.13402 15.97069,40.51389 39.8093,40.51389 13.26976,0 24.54319,-4.8147 31.47165,-12.44775 1.05689,-1.05688 1.29175,-2.11376 1.29175,-3.75781 z"
           inkscape:connector-curvature="0" />
      </g>
      <g
         id="text4320"
         style="font-style:normal;font-weight:normal;font-size:40px;line-height:125%;font-family:sans-serif;letter-spacing:0px;word-spacing:0px;fill:#000000;fill-opacity:1;stroke:none;stroke-width:1px;stroke-linecap:butt;stroke-linejoin:miter;stroke-opacity:1">
        <path
           id="path4424"
           style="font-style:normal;font-variant:normal;font-weight:500;font-stretch:normal;font-size:117.43154907px;font-family:'Bryant Pro';-inkscape-font-specification:'Bryant Pro Medium';fill:#000000"
           d="m 562.02433,802.49615 c 0,-3.05322 -2.34863,-5.40185 -5.40185,-5.40185 l -55.42769,0 c -3.05322,0 -5.40185,2.34863 -5.40185,5.40185 0,2.81836 2.46606,5.16699 5.40185,5.16699 l 22.19456,0 0,62.82588 c 0,3.17065 2.34863,5.75414 5.75415,5.75414 3.28808,0 5.51928,-2.58349 5.51928,-5.75414 l 0,-62.82588 21.9597,0 c 2.93579,0 5.40185,-2.34863 5.40185,-5.16699 z"
           inkscape:connector-curvature="0" />
      </g>
      <g
         id="text4324"
         style="font-style:normal;font-weight:normal;font-size:38.82231522px;line-height:125%;font-family:sans-serif;letter-spacing:0px;word-spacing:0px;fill:#000000;fill-opacity:1;stroke:none;stroke-width:1px;stroke-linecap:butt;stroke-linejoin:miter;stroke-opacity:1"
         transform="scale(0.97055785,1.0303353)">
        <path
           id="path4413"
           style="font-style:normal;font-variant:normal;font-weight:500;font-stretch:normal;font-size:113.97411346px;font-family:'Bryant Pro';-inkscape-font-specification:'Bryant Pro Medium';fill:#000000"
           d="m 288.92319,845.58935 0,-67.3587 c 0,-3.19127 -2.05153,-5.24281 -5.12883,-5.24281 -3.07731,0 -5.24281,2.05154 -5.24281,5.24281 l 0,52.31412 -43.53811,-55.39142 c -0.9118,-1.25371 -2.39346,-2.16551 -4.10307,-2.16551 -3.30525,0 -5.35679,1.93756 -5.35679,5.24281 l 0,67.3587 c 0,2.73538 1.93756,5.12884 5.12884,5.12884 3.19127,0 5.24281,-2.27948 5.24281,-5.12884 l 0,-52.42809 43.65208,55.61937 c 1.02577,1.25371 2.16551,1.93756 4.10307,1.93756 3.41923,0 5.24281,-2.39346 5.24281,-5.12884 z"
           inkscape:connector-curvature="0" />
      </g>
      <g
         id="text4328"
         style="font-style:normal;font-weight:normal;font-size:39.37057877px;line-height:125%;font-family:sans-serif;letter-spacing:0px;word-spacing:0px;fill:#000000;fill-opacity:1;stroke:none;stroke-width:1px;stroke-linecap:butt;stroke-linejoin:miter;stroke-opacity:1"
         transform="scale(0.98426448,1.0159871)">
        <path
           id="path4421"
           style="font-style:normal;font-variant:normal;font-weight:500;font-stretch:normal;font-size:115.58370209px;font-family:'Bryant Pro';-inkscape-font-specification:'Bryant Pro Medium';fill:#000000"
           d="m 491.61616,857.06881 0,-67.50088 c 0,-3.12076 -2.19609,-5.66361 -5.54802,-5.66361 -3.12076,0 -5.54801,2.42726 -5.54801,5.66361 l 0,27.50892 -41.49455,0 0,-27.50892 c 0,-3.12076 -2.31168,-5.66361 -5.54802,-5.66361 -3.23634,0 -5.54802,2.42726 -5.54802,5.66361 l 0,67.50088 c 0,3.12076 2.31168,5.6636 5.6636,5.6636 3.23635,0 5.43244,-2.54284 5.43244,-5.6636 l 0,-29.58943 41.49455,0 0,29.58943 c 0,3.12076 2.42725,5.6636 5.54801,5.6636 3.23635,0 5.54802,-2.54284 5.54802,-5.6636 z"
           inkscape:connector-curvature="0" />
      </g>
      <g
         id="text4332"
         style="font-style:normal;font-weight:normal;font-size:40px;line-height:125%;font-family:sans-serif;letter-spacing:0px;word-spacing:0px;fill:#000000;fill-opacity:1;stroke:none;stroke-width:1px;stroke-linecap:butt;stroke-linejoin:miter;stroke-opacity:1">
        <path
           id="path4430"
           style="font-style:normal;font-variant:normal;font-weight:normal;font-stretch:normal;font-size:28.75px;font-family:'Bryant Pro';-inkscape-font-specification:'Bryant Pro';letter-spacing:3.5px;fill:#000000"
           d="m 95.438036,926.9604 0,-17.8825 c 0,-0.48875 -0.37375,-0.8625 -0.8625,-0.8625 -0.48875,0 -0.8625,0.37375 -0.8625,0.8625 l 0,17.8825 c 0,0.48875 0.37375,0.8625 0.8625,0.8625 0.48875,0 0.8625,-0.37375 0.8625,-0.8625 z"
           inkscape:connector-curvature="0" />
        <path
           id="path4432"
           style="font-style:normal;font-variant:normal;font-weight:normal;font-stretch:normal;font-size:28.75px;font-family:'Bryant Pro';-inkscape-font-specification:'Bryant Pro';letter-spacing:3.5px;fill:#000000"
           d="m 111.03505,926.9604 0,-16.9625 6.21,0 c 0.43125,0 0.77625,-0.345 0.77625,-0.77625 0,-0.43125 -0.345,-0.77625 -0.77625,-0.77625 l -14.145,0 c -0.43125,0 -0.77625,0.345 -0.77625,0.77625 0,0.43125 0.345,0.77625 0.77625,0.77625 l 6.21,0 0,16.9625 c 0,0.48875 0.37375,0.8625 0.8625,0.8625 0.48875,0 0.8625,-0.37375 0.8625,-0.8625 z"
           inkscape:connector-curvature="0" />
        <path
           id="path4434"
           style="font-style:normal;font-variant:normal;font-weight:normal;font-stretch:normal;font-size:28.75px;font-family:'Bryant Pro';-inkscape-font-specification:'Bryant Pro';letter-spacing:3.5px;fill:#000000"
           d="m 124.77095,926.9604 c 0,0.48875 0.37375,0.8625 0.8625,0.8625 0.48875,0 0.8625,-0.37375 0.8625,-0.8625 l 0,-8.3375 11.64375,0 0,8.3375 c 0,0.48875 0.37375,0.8625 0.8625,0.8625 0.48875,0 0.8625,-0.37375 0.8625,-0.8625 l 0,-17.8825 c 0,-0.48875 -0.37375,-0.8625 -0.8625,-0.8625 -0.48875,0 -0.8625,0.37375 -0.8625,0.8625 l 0,7.96375 -11.64375,0 0,-7.96375 c 0,-0.48875 -0.37375,-0.8625 -0.8625,-0.8625 -0.48875,0 -0.8625,0.37375 -0.8625,0.8625 l 0,17.8825 z"
           inkscape:connector-curvature="0" />
      </g>
      <g
         id="text4336"
         style="font-style:normal;font-weight:normal;font-size:37.38838959px;line-height:125%;font-family:sans-serif;letter-spacing:0px;word-spacing:0px;fill:#000000;fill-opacity:1;stroke:none;stroke-width:1px;stroke-linecap:butt;stroke-linejoin:miter;stroke-opacity:1"
         transform="scale(0.9347098,1.0698508)">
        <path
           id="path4427"
           style="font-style:normal;font-variant:normal;font-weight:normal;font-stretch:normal;font-size:26.87290573px;font-family:'Bryant Pro';-inkscape-font-specification:'Bryant Pro';fill:#000000"
           d="m 80.958126,849.48239 c -0.107492,-0.34935 -0.349348,-0.56433 -0.725569,-0.56433 -0.37622,0 -0.618076,0.21498 -0.725568,0.56433 l -5.052106,14.83384 -4.917742,-14.83384 c -0.107492,-0.34935 -0.295602,-0.56433 -0.698696,-0.56433 -0.403093,0 -0.752441,0.26873 -0.752441,0.72557 0,0.0806 0.02687,0.21498 0.05375,0.32247 l 5.589564,16.76869 c 0.107492,0.29561 0.295602,0.51059 0.725569,0.51059 0.403093,0 0.618076,-0.18811 0.725568,-0.51059 l 5.052106,-14.88759 5.052107,14.88759 c 0.107491,0.32248 0.322474,0.51059 0.725568,0.51059 0.429967,0 0.618077,-0.21498 0.725569,-0.51059 l 5.589564,-16.76869 c 0.02687,-0.10749 0.05375,-0.24186 0.05375,-0.32247 0,-0.45684 -0.349348,-0.72557 -0.752442,-0.72557 -0.403093,0 -0.591204,0.21498 -0.698695,0.56433 l -4.917742,14.83384 -5.052106,-14.83384 z"
           inkscape:connector-curvature="0" />
      </g>
      <g
         id="text4340"
         style="font-style:normal;font-weight:normal;font-size:40px;line-height:125%;font-family:sans-serif;letter-spacing:3.79999995px;word-spacing:0px;fill:#b70c2a;fill-opacity:1;stroke:none;stroke-width:1px;stroke-linecap:butt;stroke-linejoin:miter;stroke-opacity:1">
        <path
           id="path4450"
           style="font-style:normal;font-variant:normal;font-weight:normal;font-stretch:normal;font-size:51.25px;font-family:'Bryant Pro';-inkscape-font-specification:'Bryant Pro';letter-spacing:3.79999995px;fill:#b70c2a;fill-opacity:1"
           d="m 173.99148,941.16437 c -5.125,0 -7.73875,-2.81874 -8.815,-7.53375 -0.15375,-0.76874 -0.56375,-1.23 -1.38375,-1.23 -0.87125,0 -1.48625,0.51251 -1.48625,1.48626 0,0.15374 0.0513,0.51249 0.1025,0.71749 1.3325,5.4325 5.07375,9.27625 11.63375,9.27625 8.35375,0 12.14625,-5.79124 12.14625,-13.4275 l 0,-20.1925 c 0,-0.87125 -0.66625,-1.5375 -1.5375,-1.5375 -0.87125,0 -1.5375,0.66625 -1.5375,1.5375 l 0,20.295 c 0,6.56001 -3.02375,10.60875 -9.1225,10.60875 z"
           inkscape:connector-curvature="0" />
        <path
           id="path4452"
           style="font-style:normal;font-variant:normal;font-weight:normal;font-stretch:normal;font-size:51.25px;font-family:'Bryant Pro';-inkscape-font-specification:'Bryant Pro';letter-spacing:3.79999995px;fill:#b70c2a;fill-opacity:1"
           d="m 231.64481,926.19938 c 0,-9.53251 -6.8675,-17.68125 -17.1175,-17.68125 -10.25,0 -17.22,8.14874 -17.22,17.68125 0,9.53249 6.97,17.68124 17.22,17.68124 10.25,0 17.1175,-8.14875 17.1175,-17.68124 z m -3.075,0 c 0,7.84124 -5.2275,14.96499 -14.0425,14.96499 -8.815,0 -14.145,-7.12375 -14.145,-14.96499 0,-7.84126 5.33,-14.96501 14.145,-14.96501 8.815,0 14.0425,7.12375 14.0425,14.96501 z"
           inkscape:connector-curvature="0" />
        <path
           id="path4454"
           style="font-style:normal;font-variant:normal;font-weight:normal;font-stretch:normal;font-size:51.25px;font-family:'Bryant Pro';-inkscape-font-specification:'Bryant Pro';letter-spacing:3.79999995px;fill:#b70c2a;fill-opacity:1"
           d="m 243.04983,942.13812 c 0,0.87125 0.66625,1.5375 1.5375,1.5375 0.87125,0 1.5375,-0.66625 1.5375,-1.5375 l 0,-14.8625 20.75625,0 0,14.8625 c 0,0.87125 0.66625,1.5375 1.5375,1.5375 0.87125,0 1.5375,-0.66625 1.5375,-1.5375 l 0,-31.8775 c 0,-0.87125 -0.66625,-1.5375 -1.5375,-1.5375 -0.87125,0 -1.5375,0.66625 -1.5375,1.5375 l 0,14.19625 -20.75625,0 0,-14.19625 c 0,-0.87125 -0.66625,-1.5375 -1.5375,-1.5375 -0.87125,0 -1.5375,0.66625 -1.5375,1.5375 l 0,31.8775 z"
           inkscape:connector-curvature="0" />
        <path
           id="path4456"
           style="font-style:normal;font-variant:normal;font-weight:normal;font-stretch:normal;font-size:51.25px;font-family:'Bryant Pro';-inkscape-font-specification:'Bryant Pro';letter-spacing:3.79999995px;fill:#b70c2a;fill-opacity:1"
           d="m 310.80183,942.24063 0,-32.03125 c 0,-0.82001 -0.56375,-1.48626 -1.435,-1.48626 -0.87125,0 -1.48625,0.615 -1.48625,1.48626 l 0,27.88 -21.67875,-28.70001 c -0.25625,-0.35875 -0.66625,-0.66625 -1.17875,-0.66625 -0.9225,0 -1.5375,0.615 -1.5375,1.48626 l 0,32.03125 c 0,0.76874 0.615,1.43499 1.48625,1.43499 0.82,0 1.435,-0.66625 1.435,-1.43499 l 0,-27.88 21.73,28.64874 c 0.3075,0.41 0.615,0.66625 1.17875,0.66625 0.97375,0 1.48625,-0.66625 1.48625,-1.43499 z"
           inkscape:connector-curvature="0" />
      </g>
      <g
         id="text4365"
         style="font-style:normal;font-weight:normal;font-size:40px;line-height:125%;font-family:sans-serif;letter-spacing:0px;word-spacing:0px;fill:#b70c2a;fill-opacity:1;stroke:none;stroke-width:1px;stroke-linecap:butt;stroke-linejoin:miter;stroke-opacity:1">
        <path
           id="path4437"
           style="font-style:normal;font-variant:normal;font-weight:normal;font-stretch:normal;font-size:51.25px;font-family:'Bryant Pro';-inkscape-font-specification:'Bryant Pro';letter-spacing:4.75px;word-spacing:1px;fill:#b70c2a;fill-opacity:1"
           d="m 371.36297,926.19889 c 0,-9.5325 -6.8675,-17.68125 -17.1175,-17.68125 -10.25,0 -17.22,8.14875 -17.22,17.68125 0,9.5325 6.97,17.68125 17.22,17.68125 10.25,0 17.1175,-8.14875 17.1175,-17.68125 z m -3.075,0 c 0,7.84125 -5.2275,14.965 -14.0425,14.965 -8.815,0 -14.145,-7.12375 -14.145,-14.965 0,-7.84125 5.33,-14.965 14.145,-14.965 8.815,0 14.0425,7.12375 14.0425,14.965 z"
           inkscape:connector-curvature="0" />
        <path
           id="path4439"
           style="font-style:normal;font-variant:normal;font-weight:normal;font-stretch:normal;font-size:51.25px;font-family:'Bryant Pro';-inkscape-font-specification:'Bryant Pro';letter-spacing:4.75px;word-spacing:1px;fill:#b70c2a;fill-opacity:1"
           d="m 386.79299,940.49764 0,-30.2375 c 0,-0.87125 -0.66625,-1.5375 -1.5375,-1.5375 -0.87125,0 -1.5375,0.66625 -1.5375,1.5375 l 0,31.4675 c 0,0.87125 0.66625,1.5375 1.5375,1.5375 l 19.885,0 c 0.76875,0 1.38375,-0.615 1.38375,-1.38375 0,-0.76875 -0.615,-1.38375 -1.38375,-1.38375 l -18.3475,0 z"
           inkscape:connector-curvature="0" />
        <path
           id="path4441"
           style="font-style:normal;font-variant:normal;font-weight:normal;font-stretch:normal;font-size:51.25px;font-family:'Bryant Pro';-inkscape-font-specification:'Bryant Pro';letter-spacing:4.75px;word-spacing:1px;fill:#b70c2a;fill-opacity:1"
           d="m 421.32805,942.13764 0,-31.8775 c 0,-0.87125 -0.66625,-1.5375 -1.5375,-1.5375 -0.87125,0 -1.5375,0.66625 -1.5375,1.5375 l 0,31.8775 c 0,0.87125 0.66625,1.5375 1.5375,1.5375 0.87125,0 1.5375,-0.66625 1.5375,-1.5375 z"
           inkscape:connector-curvature="0" />
        <path
           id="path4443"
           style="font-style:normal;font-variant:normal;font-weight:normal;font-stretch:normal;font-size:51.25px;font-family:'Bryant Pro';-inkscape-font-specification:'Bryant Pro';letter-spacing:4.75px;word-spacing:1px;fill:#b70c2a;fill-opacity:1"
           d="m 446.82229,943.67514 c 0.76875,0 1.1275,-0.41 1.38375,-0.97375 l 13.58125,-31.92875 c 0.1025,-0.25625 0.15375,-0.5125 0.15375,-0.7175 0,-0.76875 -0.66625,-1.3325 -1.435,-1.3325 -0.56375,0 -1.025,0.25625 -1.28125,0.82 l -12.4025,29.2125 -12.4025,-29.2125 c -0.25625,-0.56375 -0.7175,-0.82 -1.28125,-0.82 -0.76875,0 -1.435,0.56375 -1.435,1.3325 0,0.205 0.0513,0.46125 0.15375,0.7175 l 13.58125,31.92875 c 0.25625,0.56375 0.615,0.97375 1.38375,0.97375 z"
           inkscape:connector-curvature="0" />
        <path
           id="path4445"
           style="font-style:normal;font-variant:normal;font-weight:normal;font-stretch:normal;font-size:51.25px;font-family:'Bryant Pro';-inkscape-font-specification:'Bryant Pro';letter-spacing:4.75px;word-spacing:1px;fill:#b70c2a;fill-opacity:1"
           d="m 475.11526,927.01889 10.5575,0 c 0.76875,0 1.38375,-0.615 1.38375,-1.38375 0,-0.76875 -0.615,-1.38375 -1.38375,-1.38375 l -10.5575,0 0,-12.35125 18.19375,0 c 0.76875,0 1.38375,-0.615 1.38375,-1.38375 0,-0.76875 -0.615,-1.38375 -1.38375,-1.38375 l -19.73125,0 c -0.87125,0 -1.5375,0.66625 -1.5375,1.5375 l 0,31.0575 c 0,0.87125 0.66625,1.5375 1.5375,1.5375 l 19.7825,0 c 0.76875,0 1.38375,-0.615 1.38375,-1.38375 0,-0.76875 -0.615,-1.38375 -1.38375,-1.38375 l -18.245,0 0,-13.47875 z"
           inkscape:connector-curvature="0" />
        <path
           id="path4447"
           style="font-style:normal;font-variant:normal;font-weight:normal;font-stretch:normal;font-size:51.25px;font-family:'Bryant Pro';-inkscape-font-specification:'Bryant Pro';letter-spacing:4.75px;word-spacing:1px;fill:#b70c2a;fill-opacity:1"
           d="m 533.47196,918.61389 c 0,-5.4325 -3.74125,-9.48125 -10.50625,-9.48125 l -14.70875,0 c -0.82,0 -1.5375,0.66625 -1.5375,1.5375 l 0,31.4675 c 0,0.87125 0.66625,1.5375 1.5375,1.5375 0.9225,0 1.5375,-0.66625 1.5375,-1.5375 l 0,-14.0425 12.65875,0 7.22625,14.70875 c 0.3075,0.56375 0.66625,0.87125 1.435,0.87125 0.87125,0 1.48625,-0.7175 1.48625,-1.48625 0,-0.25625 -0.1025,-0.5125 -0.205,-0.7175 l -6.6625,-13.6325 c 5.0225,-0.9225 7.73875,-4.56125 7.73875,-9.225 z m -3.075,0 c 0,3.895 -2.5625,6.71375 -6.81625,6.71375 l -13.78625,0 0,-13.4275 13.78625,0 c 4.25375,0 6.81625,2.81875 6.81625,6.71375 z"
           inkscape:connector-curvature="0" />
      </g>
    </g>
  </g>
</svg>
